<svg width="302" height="501" viewBox="0 0 302 501" fill="none" xmlns="http://www.w3.org/2000/svg">
<path d="M151.2 409.2C130.6 409.2 112.8 405.9 97.8 399.3C83 392.5 70.8 384 61.2 373.8C51.8 363.4 44.8 352.8 40.2 342C35.8 331.2 33.6 321.8 33.6 313.8C33.6 306.8 35.1 301.9 38.1 299.1C41.3 296.1 45.6 294.6 51 294.6C56.4 294.6 60.5 296.2 63.3 299.4C66.3 302.6 68.8 307.2 70.8 313.2C74.6 324 79.9 333.7 86.7 342.3C93.7 350.9 102.5 357.7 113.1 362.7C123.9 367.7 136.8 370.2 151.8 370.2C170.8 370.2 186.2 365.5 198 356.1C210 346.5 216 333.8 216 318C216 304.6 212.5 293.9 205.5 285.9C198.5 277.7 189.2 271 177.6 265.8C166.2 260.4 153.6 255.5 139.8 251.1C126.2 246.7 112.5 241.6 98.7 235.8C85.1 230 72.5 222.5 60.9 213.3C49.5 204.1 40.3 192.1 33.3 177.3C26.3 162.5 22.8 143.8 22.8 121.2C22.8 95 28.1 72.9 38.7 54.9C49.3 36.9 64.4 23.3001 84 14.1001C103.6 4.70004 126.8 3.52859e-05 153.6 3.52859e-05C177.4 3.52859e-05 197.5 2.90004 213.9 8.70005C230.3 14.5 243.4 21.9 253.2 30.9C263.2 39.7001 270.4 48.8001 274.8 58.2C279.2 67.6 281.4 75.8 281.4 82.8C281.4 91.4 279.1 97.7 274.5 101.7C269.9 105.5 264.6 107.4 258.6 107.4C252.4 107.4 247.1 105.2 242.7 100.8C238.3 96.2001 233.7 91.0001 228.9 85.2C224.3 79.4 218.3 74.3 210.9 69.9C203.5 65.3 193.6 63 181.2 63C166.6 63 155.1 67.1 146.7 75.3C138.5 83.5001 134.4 94.4 134.4 108C134.4 120 136.7 130.4 141.3 139.2C146.1 148 152.4 156 160.2 163.2C168.2 170.2 176.8 176.9 186 183.3C195.4 189.5 204.7 196.1 213.9 203.1C223.3 210.1 231.9 218.1 239.7 227.1C247.7 235.9 254 246.2 258.6 258C263.4 269.8 265.8 283.8 265.8 300C265.8 316.6 263.2 331.6 258 345C253 358.4 245.6 369.9 235.8 379.5C226 389.1 214 396.5 199.8 401.7C185.6 406.7 169.4 409.2 151.2 409.2ZM114.6 208.8C129.4 208.8 136.8 202.6 136.8 190.2C136.8 183.6 135.2 178.6 132 175.2C128.8 171.6 124.2 169.8 118.2 169.8C110.8 169.8 105.5 171.5 102.3 174.9C99.3 178.3 97.8 183.2 97.8 189.6C97.8 195.2 99.4 199.8 102.6 203.4C105.8 207 109.8 208.8 114.6 208.8ZM81.6 160.2C89.4 160.2 95.2 158.1 99 153.9C103 149.5 105 144.2 105 138C105 130.2 103.1 124.5 99.3 120.9C95.5 117.1 89.6 115.2 81.6 115.2C74.2 115.2 68.7 117 65.1 120.6C61.7 124 60 129.8 60 138C60 145.2 62 150.7 66 154.5C70.2 158.3 75.4 160.2 81.6 160.2ZM84 95.4001C91.6 95.4001 97.2 93.7001 100.8 90.3C104.4 86.7 106.2 81.6 106.2 75C106.2 68 104.6 63 101.4 60C98.2 56.8 92.4 55.2 84 55.2C79.2 55.2 75 56.8 71.4 60C67.8 63 66 68 66 75C66 81.0001 67.6 85.9001 70.8 89.7C74.2 93.5001 78.6 95.4001 84 95.4001ZM259.8 102.6C255 102.6 251.2 101.3 248.4 98.7C245.6 95.9 244.2 91.8 244.2 86.4C244.2 81.2001 245.8 77.3001 249 74.7001C252.4 72.1001 256.6 70.8001 261.6 70.8001C266.2 70.8001 269.7 72.4 272.1 75.6C274.7 78.6 276 82.4001 276 87.0001C276 91.8 274.6 95.6 271.8 98.4001C269 101.2 265 102.6 259.8 102.6ZM222 365.4L243 343.2C261.6 356.8 275.2 367.6 283.8 375.6C292.4 383.4 297.4 389.6 298.8 394.2C300.4 398.6 299.8 402.6 297 406.2C293.6 410.6 289.3 412.5 284.1 411.9C279.1 411.1 271.7 407.1 261.9 399.9C252.3 392.5 239 381 222 365.4ZM175.8 390L210.6 374.4C223 400.8 231.8 421 237 435C242.2 449.2 244.4 459.3 243.6 465.3C243 471.3 240 475.4 234.6 477.6C228.8 480 223.4 479.1 218.4 474.9C213.6 470.9 207.9 462.2 201.3 448.8C194.9 435.4 186.4 415.8 175.8 390ZM121.8 396.6L156.6 397.8C158.6 426 159.6 447.4 159.6 462C159.8 476.6 158.5 486.5 155.7 491.7C152.9 497.1 148 500 141 500.4C135.2 500.6 130.6 498.1 127.2 492.9C123.8 487.9 121.6 477.9 120.6 462.9C119.8 448.1 120.2 426 121.8 396.6ZM76.2 385.2C77.2 384 78.2 382.8 79.2 381.6C80.4 380.4 81.4 379.4 82.2 378.6C85.6 375.2 89.1 373.6 92.7 373.8C96.3 374 99.4 375.2 102 377.4C105.4 379.4 107.7 382.4 108.9 386.4C110.3 390.2 109.8 393.6 107.4 396.6C106.8 397.4 106.1 398.4 105.3 399.6C104.5 400.6 103.8 401.6 103.2 402.6C90.4 419.4 80.2 431.1 72.6 437.7C65 444.5 59 448.1 54.6 448.5C50.4 448.9 47 448 44.4 445.8C42 443.6 40.6 440.5 40.2 436.5C40 432.5 42.4 426.5 47.4 418.5C52.6 410.5 62.2 399.4 76.2 385.2ZM65.4 329.4L74.4 357.6C57.8 365.6 44.7 371.5 35.1 375.3C25.7 378.9 18.6 380.4 13.8 379.8C9.2 379.2 5.8 376.4 3.6 371.4C1.2 365.4 1.6 360.3 4.8 356.1C8.2 351.7 14.8 347.5 24.6 343.5C34.6 339.5 48.2 334.8 65.4 329.4Z" fill="white"/>
</svg>
