<svg width="517" height="529" viewBox="0 0 517 529" fill="none" xmlns="http://www.w3.org/2000/svg">
<path d="M219.468 18.2022C219.468 8.1494 227.616 0 237.667 0H278.614C288.665 0 296.813 8.14938 296.813 18.2022V529H219.468V18.2022Z" fill="white" fill-opacity="0.5"/>
<path d="M72.7391 71.671C72.7391 67.9012 75.7945 64.8452 79.5637 64.8452H219.468V142.204H79.5637C75.7945 142.204 72.7391 139.148 72.7391 135.378V71.671Z" fill="white" fill-opacity="0.5"/>
<path d="M296.813 187.71H436.717C440.486 187.71 443.542 190.766 443.542 194.535V258.243C443.542 262.013 440.486 265.069 436.717 265.069H296.813V187.71Z" fill="white" fill-opacity="0.5"/>
<path d="M66.1977 68.0306C69.2198 66.559 72.7391 68.7601 72.7391 72.122L72.7391 134.85C72.7391 138.231 69.184 140.431 66.1591 138.923L2.51951 107.185C-0.857598 105.501 -0.834791 100.673 2.55808 99.021L66.1977 68.0306Z" fill="white" fill-opacity="0.5"/>
<path d="M450.104 261.832C447.08 263.323 443.542 261.123 443.542 257.751L443.542 194.957C443.542 191.602 447.047 189.401 450.068 190.858L514.427 221.905C517.841 223.552 517.862 228.408 514.463 230.085L450.104 261.832Z" fill="white" fill-opacity="0.5"/>
</svg>
